 <svg  version="1.0" xmlns="http://www.w3.org/2000/svg"  width="900.000000pt" height="507.000000pt" viewBox="0 0 900.000000 507.000000"  preserveAspectRatio="xMidYMid meet">  <g transform="translate(0.000000,507.000000) scale(0.100000,-0.100000)" fill="#ffffff" stroke="none"> <path d="M4430 2761 c-67 -22 -68 -26 -61 -158 1 -20 6 -23 44 -23 30 0 53 7 77 25 19 14 39 25 45 25 21 0 45 -36 45 -66 0 -46 -48 -85 -160 -130 -25 -10 -47 -19 -48 -20 -3 -2 -5 -114 -3 -161 1 -10 52 -13 221 -13 l220 0 0 69 c0 78 -3 81 -80 81 -60 0 -72 15 -28 33 45 20 82 62 103 120 16 41 16 53 5 90 -35 119 -218 181 -380 128z"/> <path d="M2841 2724 c-123 -38 -184 -152 -157 -294 14 -74 65 -140 132 -170 66 -29 241 -29 306 0 53 23 93 61 119 112 28 54 27 183 -2 238 -28 54 -82 97 -145 115 -63 18 -193 18 -253 -1z m184 -159 c20 -19 25 -34 25 -76 0 -67 -26 -99 -80 -99 -55 0 -75 28 -75 102 0 51 3 62 25 78 35 27 76 25 105 -5z"/> <path d="M2063 2719 c-21 -21 -16 -103 7 -124 17 -16 20 -31 20 -109 0 -81 -2 -93 -20 -104 -18 -11 -21 -21 -18 -75 l3 -62 185 -3 c156 -2 193 0 235 15 64 23 85 38 123 92 31 42 32 48 32 138 0 81 -3 98 -24 131 -26 41 -44 58 -96 87 -31 18 -57 20 -235 23 -152 3 -203 0 -212 -9z m332 -145 c23 -15 25 -23 25 -84 0 -82 -17 -103 -77 -98 l-38 3 -3 84 c-2 46 -1 90 2 98 7 18 62 16 91 -3z"/> <path d="M3294 2717 c-3 -8 -4 -49 -2 -93 4 -94 19 -106 73 -54 18 18 38 29 44 26 7 -5 11 -45 11 -104 0 -86 -2 -100 -20 -115 -18 -15 -20 -27 -18 -75 l3 -57 148 -3 147 -3 0 64 c0 51 -4 68 -20 82 -17 16 -20 31 -20 111 0 56 4 95 11 100 6 3 26 -8 44 -26 19 -19 41 -30 51 -28 17 3 19 14 19 93 l0 90 -233 3 c-188 2 -233 0 -238 -11z"/> <path d="M3913 2720 c-16 -6 -23 -18 -23 -35 0 -15 -5 -36 -12 -48 -6 -12 -15 -38 -19 -57 -20 -91 -41 -146 -64 -170 -22 -23 -25 -35 -25 -98 l0 -72 88 0 c48 0 92 4 97 8 6 4 15 21 20 37 10 28 13 30 65 30 54 0 55 -1 73 -37 l19 -38 89 0 89 0 0 70 c0 57 -4 75 -25 106 -14 21 -28 49 -31 63 -3 14 -11 44 -18 66 -7 22 -21 67 -31 100 -10 33 -23 66 -28 73 -11 14 -229 16 -264 2z m151 -192 c14 -87 11 -98 -25 -98 l-32 0 5 50 c8 76 43 108 52 48z"/> <path d="M4882 2718 c-20 -20 -15 -102 8 -131 28 -35 30 -191 3 -206 -14 -7 -18 -23 -18 -73 l0 -63 145 0 145 0 3 61 c3 56 1 63 -23 78 -23 15 -25 22 -25 97 0 72 2 82 25 103 21 19 25 32 25 78 0 49 -3 56 -22 62 -43 11 -253 7 -266 -6z"/> <path d="M5214 2717 c-3 -8 -4 -49 -2 -93 4 -94 19 -106 73 -54 18 18 38 29 44 26 7 -5 11 -44 11 -100 0 -80 -3 -95 -20 -111 -16 -14 -20 -31 -20 -82 l0 -64 148 3 147 3 3 54 c3 44 -1 58 -18 76 -19 20 -22 35 -22 115 0 113 9 126 56 81 25 -25 39 -31 55 -26 19 6 21 14 21 84 0 46 -5 82 -12 89 -18 18 -457 17 -464 -1z"/> <path d="M5748 2723 c-28 -7 -25 -109 3 -139 17 -18 21 -35 21 -103 1 -70 -2 -85 -20 -104 -17 -18 -22 -36 -22 -80 l0 -57 218 2 217 3 3 65 c2 44 -2 71 -11 85 -13 17 -18 18 -53 6 -22 -7 -55 -13 -74 -14 -33 -2 -35 0 -35 28 0 31 3 32 60 23 17 -3 20 3 23 46 l3 48 -46 -6 -46 -7 3 33 c3 38 7 38 101 17 50 -12 59 -11 67 1 14 22 12 134 -2 148 -9 9 -66 12 -202 11 -105 -1 -199 -3 -208 -6z"/> <path d="M6228 2719 c-29 -16 -24 -94 7 -131 22 -26 25 -39 25 -107 0 -70 -2 -79 -25 -100 -23 -19 -26 -28 -23 -79 l3 -57 128 -3 127 -3 0 95 c0 96 11 127 30 84 14 -31 31 -58 57 -93 l22 -30 10 25 c22 50 70 117 79 110 4 -3 7 -45 7 -95 l0 -90 125 0 125 0 0 63 c0 50 -4 66 -18 73 -14 8 -17 25 -17 98 0 74 3 92 20 111 23 26 28 108 8 128 -13 13 -193 17 -235 6 -12 -3 -27 -18 -33 -33 -6 -14 -16 -35 -23 -46 -7 -11 -21 -35 -31 -53 -16 -31 -19 -32 -34 -18 -9 8 -28 37 -41 63 -47 91 -50 93 -170 93 -58 0 -114 -5 -123 -11z"/> </g> </svg> 